<?xml version="1.0" encoding="utf-8"?>
<!-- Generator: Adobe Illustrator 25.2.1, SVG Export Plug-In . SVG Version: 6.00 Build 0)  -->
<svg version="1.1" id="Camada_1" xmlns="http://www.w3.org/2000/svg" xmlns:xlink="http://www.w3.org/1999/xlink" x="0px" y="0px"
	 viewBox="0 0 850.4 566.9" style="enable-background:new 0 0 850.4 566.9;" xml:space="preserve">
<style type="text/css">
	.st0{fill-rule:evenodd;clip-rule:evenodd;fill:#FFFFFF;}
	.st1{fill-rule:evenodd;clip-rule:evenodd;fill:#F8BA00;}
</style>
<path class="st0" d="M176,308H90.3l-18.1,49.9H27.5L109,145.5h49.6l82.5,212.4h-47.1L176,308L176,308z M163.5,272.9l-30.7-83.3
	l-30.3,83.3H163.5z M163.5,272.9"/>
<path class="st0" d="M807.2,281.3c0-43.2-28.8-75.7-75.7-75.7c-41.3,0-74.8,25.1-80,67.3c-7.4-14-20.9-23.5-36.5-27.5
	c17.2-8.8,27.9-23.5,27.9-45.1c0-30.9-22.1-50.3-59.2-54c-0.1,0.7-0.3,1.3-0.6,1.9l-12.2,34c16.8,1.2,29.2,8.2,29.2,23.8
	c0,17.4-15.1,25.7-32.8,25.7H553l-12.3,34.3h33.4c23.3,0,39.3,8.9,39.3,27.8c0,18.9-16.2,27.6-36.7,27.6h-42.5v-37.4L510,351.5
	c-0.9,2.3-2.1,4.4-3.6,6.4H583c37.4,0,64.9-18.7,72.3-45.7c11.3,31.9,42.5,48.8,78.4,48.8c24,0,46.9-7.6,62.9-20l-18.6-24.8
	c-3,2.1-6.2,4-9.5,5.6c-3.3,1.6-6.7,3-10.3,4.1c-3.5,1.1-7.1,1.9-10.8,2.5c-3.6,0.6-7.3,0.8-11,0.9c-25.1,0-42-13.2-44.5-34.4h114.3
	C806.9,290.3,807.2,285.8,807.2,281.3L807.2,281.3z M692.7,269c2.8-18.9,17.5-31.2,38.4-31.2c22,0,34.1,13.8,36.1,31.2H692.7z
	 M692.7,269"/>
<path class="st0" d="M392.4,331.3c-0.8-1.3-1.5-2.6-2-4.1c-0.5-1.4-0.8-2.9-1-4.4c-0.2-1.5-0.1-3,0.1-4.6c0.2-1.5,0.6-3,1.1-4.4
	l17.1-42.2l-2.4-0.1c-0.4,0-0.9-0.1-1.3-0.1c-0.4-0.1-0.8-0.2-1.3-0.3c-0.4-0.1-0.8-0.3-1.2-0.4c-0.4-0.2-0.8-0.4-1.2-0.6
	c-0.4-0.2-0.7-0.5-1.1-0.7c-0.3-0.3-0.7-0.5-1-0.8c-0.3-0.3-0.6-0.6-0.9-1c-0.3-0.3-0.5-0.7-0.8-1.1c-0.2-0.4-0.4-0.7-0.6-1.1
	c-0.2-0.4-0.3-0.8-0.5-1.2c-0.1-0.4-0.2-0.8-0.3-1.3c-0.1-0.4-0.1-0.9-0.2-1.3c0-0.4,0-0.9,0-1.3c0-0.4,0.1-0.9,0.1-1.3
	c0.1-0.4,0.2-0.8,0.3-1.3c0.1-0.4,0.3-0.8,0.4-1.2l5.5-12.8h-61v33.6h53.3c-1.8,29.2-27.5,46.3-57.2,46.3c-42.2,0-67.1-33.4-67.1-71
	c0-41,29.2-72.9,72.4-72.9c4.9,0,9.8,0.4,14.6,1.2c4.8,0.8,9.6,1.9,14.2,3.4c4.7,1.5,9.2,3.3,13.6,5.5c4.4,2.2,8.6,4.7,12.6,7.5
	l18.9-28.8c-20.8-16.9-49.9-26.3-77.9-26.3c-63.2,0-112.4,46.9-112.4,110.6c0,57.8,40.5,107.8,111.2,107.8
	c26.7,0,49.3-7.3,66.4-21.8c-2.2-0.6-4.2-1.5-6-2.8C395.1,334.8,393.6,333.2,392.4,331.3z M392.4,331.3"/>
<path class="st1" d="M504.1,162.7c0-0.4-0.1-0.8-0.2-1.3c-0.1-0.4-0.2-0.8-0.4-1.2c-0.1-0.4-0.3-0.8-0.5-1.2
	c-0.2-0.4-0.4-0.8-0.7-1.1c-0.2-0.4-0.5-0.7-0.8-1c-0.3-0.3-0.6-0.6-0.9-0.9c-0.3-0.3-0.6-0.6-1-0.8c-0.3-0.2-0.7-0.5-1.1-0.7
	c-0.4-0.2-0.8-0.4-1.2-0.5c-0.4-0.2-0.8-0.3-1.2-0.4c-0.4-0.1-0.8-0.2-1.3-0.2c-0.4-0.1-0.9-0.1-1.3-0.1l-20.6-0.4
	c-1.1,0-2.2,0.1-3.2,0.4c-1.1,0.3-2,0.7-2.9,1.3c-0.9,0.6-1.7,1.3-2.4,2.2c-0.7,0.8-1.3,1.8-1.7,2.8l-64.6,157.4
	c-0.2,0.4-0.3,0.8-0.4,1.2c-0.1,0.4-0.2,0.8-0.3,1.3c-0.1,0.4-0.1,0.9-0.1,1.3c0,0.4,0,0.9,0.1,1.3c0,0.4,0.1,0.9,0.2,1.3
	c0.1,0.4,0.2,0.8,0.4,1.3c0.1,0.4,0.3,0.8,0.5,1.2c0.2,0.4,0.4,0.8,0.7,1.1c0.2,0.4,0.5,0.7,0.8,1c0.3,0.3,0.6,0.6,0.9,0.9
	c0.3,0.3,0.7,0.6,1,0.8c0.4,0.3,0.7,0.5,1.1,0.7c0.4,0.2,0.8,0.4,1.2,0.6c0.4,0.2,0.8,0.3,1.2,0.4c0.4,0.1,0.8,0.2,1.3,0.3
	c0.4,0.1,0.9,0.1,1.3,0.1l24.5,0.4c1.1,0,2.2-0.1,3.2-0.4c1.1-0.3,2-0.8,3-1.4c0.9-0.6,1.7-1.3,2.4-2.2c0.7-0.9,1.2-1.8,1.6-2.8
	l60.7-157.5c0.2-0.4,0.3-0.8,0.4-1.2c0.1-0.4,0.2-0.8,0.2-1.3c0.1-0.4,0.1-0.9,0.1-1.3C504.2,163.6,504.1,163.1,504.1,162.7z"/>
<path class="st1" d="M108.1,423.1c0,4.8-1.7,8.6-5.2,11.3c-3.5,2.7-8.2,4-14.2,4c-6.5,0-11.5-0.8-15-2.5v-6.1
	c2.2,0.9,4.7,1.7,7.3,2.2c2.6,0.5,5.3,0.8,7.9,0.8c4.2,0,7.4-0.8,9.6-2.4c2.1-1.6,3.2-3.8,3.2-6.7c0-1.9-0.4-3.4-1.1-4.6
	c-0.8-1.2-2-2.3-3.8-3.4c-1.8-1-4.5-2.2-8.1-3.5c-5.1-1.8-8.7-4-10.9-6.5c-2.2-2.5-3.3-5.8-3.3-9.8c0-4.2,1.6-7.6,4.8-10
	c3.2-2.5,7.4-3.7,12.6-3.7c5.4,0,10.4,1,15,3l-2,5.5c-4.5-1.9-8.9-2.8-13.2-2.8c-3.4,0-6,0.7-7.9,2.2c-1.9,1.4-2.8,3.4-2.8,6
	c0,1.9,0.3,3.4,1,4.7c0.7,1.2,1.9,2.3,3.5,3.3c1.7,1,4.2,2.1,7.6,3.3c5.7,2,9.7,4.2,11.8,6.6C107.1,416.3,108.1,419.4,108.1,423.1z
	 M108.1,423.1"/>
<path class="st1" d="M206.6,410.2c0,8.8-2.2,15.6-6.6,20.6c-4.4,5-10.6,7.5-18.5,7.5c-8.1,0-14.3-2.5-18.6-7.4
	c-4.4-4.9-6.6-11.9-6.6-20.9c0-8.9,2.2-15.8,6.6-20.7c4.4-4.9,10.6-7.4,18.7-7.4c7.9,0,14,2.5,18.4,7.5
	C204.3,394.6,206.6,401.5,206.6,410.2L206.6,410.2z M163,410.2c0,7.4,1.6,13,4.7,16.8c3.2,3.8,7.7,5.7,13.8,5.7
	c6.1,0,10.6-1.9,13.7-5.7c3.1-3.8,4.6-9.4,4.6-16.9c0-7.4-1.5-12.9-4.6-16.7c-3.1-3.8-7.6-5.7-13.7-5.7c-6.1,0-10.7,1.9-13.8,5.8
	C164.6,397.4,163,402.9,163,410.2z M163,410.2"/>
<path class="st1" d="M258.5,437.7V383h6.4v48.9H289v5.8H258.5z M258.5,437.7"/>
<path class="st1" d="M379.3,383v35.4c0,6.2-1.9,11.1-5.7,14.7c-3.8,3.6-8.9,5.3-15.5,5.3c-6.6,0-11.7-1.8-15.3-5.4
	c-3.6-3.6-5.4-8.5-5.4-14.8V383h6.4v35.7c0,4.6,1.2,8.1,3.7,10.5c2.5,2.4,6.2,3.7,11,3.7c4.6,0,8.2-1.2,10.7-3.7
	c2.5-2.5,3.7-6,3.7-10.6V383H379.3z M379.3,383"/>
<path class="st1" d="M457,387.9c-6,0-10.8,2-14.2,6c-3.5,4-5.2,9.5-5.2,16.4c0,7.1,1.7,12.7,5,16.6c3.4,3.9,8.1,5.9,14.3,5.9
	c3.8,0,8.2-0.7,13-2.1v5.6c-3.8,1.4-8.5,2.1-14,2.1c-8.1,0-14.3-2.4-18.6-7.3c-4.4-4.9-6.6-11.8-6.6-20.8c0-5.6,1.1-10.6,3.2-14.8
	c2.1-4.2,5.2-7.5,9.1-9.8c4-2.3,8.7-3.4,14-3.4c5.7,0,10.7,1,15,3.1l-2.7,5.5C465.2,388.9,461.1,387.9,457,387.9L457,387.9z
	 M461.3,448.5c0-3.4-2.2-5.5-6.7-6.5l2-4.3h-4.1l-3.3,6.7c2.7,0.4,4.6,1,5.5,1.6c1,0.7,1.5,1.5,1.5,2.6c0,1.4-0.5,2.3-1.5,2.8
	c-1,0.5-2.5,0.8-4.5,0.8c-1.5,0-2.8-0.1-3.9-0.3v4c1.1,0.2,2.3,0.3,3.6,0.3c3.7,0,6.6-0.7,8.5-2
	C460.4,452.7,461.3,450.9,461.3,448.5z M461.3,448.5"/>
<path class="st1" d="M569.1,410.2c0,8.8-2.2,15.6-6.6,20.6c-4.4,5-10.6,7.5-18.5,7.5c-8.1,0-14.3-2.5-18.6-7.4
	c-4.4-4.9-6.6-11.9-6.6-20.9c0-8.9,2.2-15.8,6.6-20.7c4.4-4.9,10.6-7.4,18.7-7.4c7.9,0,14,2.5,18.4,7.5
	C566.9,394.6,569.1,401.5,569.1,410.2L569.1,410.2z M525.5,410.2c0,7.4,1.6,13,4.7,16.8c3.2,3.8,7.7,5.7,13.8,5.7
	c6.1,0,10.6-1.9,13.7-5.7c3.1-3.8,4.6-9.4,4.6-16.9c0-7.4-1.5-12.9-4.6-16.7c-3.1-3.8-7.6-5.7-13.7-5.7c-6.1,0-10.7,1.9-13.8,5.8
	C527.1,397.4,525.5,402.9,525.5,410.2L525.5,410.2z M549.6,378.2c-1.1,0-2.1-0.2-3.1-0.7c-1-0.5-2-1-3-1.5c-1-0.6-1.9-1.1-2.8-1.5
	c-0.9-0.5-1.8-0.7-2.6-0.7c-1.2,0-2.2,0.4-2.8,1.1c-0.6,0.7-1.1,1.9-1.5,3.4H530c0.3-3,1.2-5.4,2.6-7.1c1.4-1.7,3.3-2.6,5.6-2.6
	c1.1,0,2.3,0.2,3.3,0.7c1.1,0.5,2.1,1,3.1,1.5c1,0.6,1.9,1.1,2.8,1.5c0.9,0.5,1.8,0.7,2.5,0.7c1.2,0,2.1-0.4,2.7-1.1
	c0.6-0.7,1.1-1.9,1.5-3.4h3.7c-0.3,3-1.2,5.4-2.6,7.1C553.8,377.3,551.9,378.2,549.6,378.2z M549.6,378.2"/>
<path class="st1" d="M651.5,437.7H621V383h30.5v5.7h-24.1v17.6H650v5.6h-22.7V432h24.1V437.7z M651.5,437.7"/>
<path class="st1" d="M734.2,423.1c0,4.8-1.7,8.6-5.2,11.3c-3.5,2.7-8.2,4-14.2,4c-6.5,0-11.5-0.8-15-2.5v-6.1
	c2.2,0.9,4.7,1.7,7.3,2.2c2.6,0.5,5.3,0.8,7.9,0.8c4.2,0,7.4-0.8,9.6-2.4c2.1-1.6,3.2-3.8,3.2-6.7c0-1.9-0.4-3.4-1.1-4.6
	c-0.8-1.2-2-2.3-3.8-3.4c-1.8-1-4.5-2.2-8.1-3.5c-5.1-1.8-8.7-4-10.9-6.5c-2.2-2.5-3.3-5.8-3.3-9.8c0-4.2,1.6-7.6,4.8-10
	c3.2-2.5,7.4-3.7,12.6-3.7c5.4,0,10.4,1,15,3l-2,5.5c-4.5-1.9-8.9-2.8-13.2-2.8c-3.4,0-6,0.7-7.9,2.2c-1.9,1.4-2.8,3.4-2.8,6
	c0,1.9,0.3,3.4,1,4.7c0.7,1.2,1.9,2.3,3.5,3.3c1.7,1,4.2,2.1,7.6,3.3c5.7,2,9.7,4.2,11.8,6.6C733.2,416.3,734.2,419.4,734.2,423.1z
	 M734.2,423.1"/>
<path class="st1" d="M582.3,124.8c-0.1-0.5-0.2-1.1-0.3-1.6c-0.1-0.5-0.3-1.1-0.5-1.6c-0.2-0.5-0.4-1-0.7-1.5
	c-0.3-0.5-0.5-1-0.9-1.4c-0.3-0.4-0.7-0.9-1-1.3c-0.4-0.4-0.8-0.8-1.2-1.2c-0.4-0.4-0.9-0.7-1.3-1c-0.5-0.3-0.9-0.6-1.4-0.8
	c-0.5-0.3-1-0.5-1.5-0.7c-0.5-0.2-1-0.3-1.6-0.5c-0.5-0.1-1.1-0.2-1.6-0.3c-0.5-0.1-1.1-0.1-1.6-0.1h-26.6c-0.7,0-1.4,0.1-2.1,0.2
	c-0.7,0.1-1.4,0.3-2,0.5c-0.7,0.2-1.3,0.5-1.9,0.8c-0.6,0.3-1.2,0.7-1.8,1.1c-0.6,0.4-1.1,0.8-1.6,1.3c-0.5,0.5-1,1-1.4,1.5
	c-0.4,0.5-0.8,1.1-1.2,1.7c-0.3,0.6-0.6,1.2-0.9,1.9c0,0-73.1,192.4-74.5,195.9c-12.9,34.4-13.1,36.5-12.5,39.1
	c0.6,2.5,2.1,5.4,3.9,7.4c1.7,2,3.7,3,11.3,3.4c7.6,0.4,20.9,0.2,28.6-0.7c7.7-1,9.9-2.7,21.5-32.8c9.2-23.7,74.1-202.8,74.1-202.8
	c0.2-0.5,0.4-1,0.5-1.6c0.1-0.5,0.2-1.1,0.3-1.6c0.1-0.5,0.1-1.1,0.1-1.6C582.4,125.9,582.4,125.4,582.3,124.8z"/>
<path class="st1" d="M411.2,263.7c0.6,0,1.1-0.1,1.5-0.4c0.5-0.3,0.8-0.7,1-1.2l15.1-37.1c0.1-0.2,0.1-0.4,0.2-0.6
	c0-0.2,0-0.4,0-0.6c0-0.2-0.1-0.4-0.1-0.6c-0.1-0.2-0.2-0.4-0.3-0.6c-0.1-0.2-0.2-0.3-0.4-0.5c-0.1-0.1-0.3-0.3-0.5-0.4
	c-0.2-0.1-0.4-0.2-0.6-0.2c-0.2-0.1-0.4-0.1-0.6-0.1l-4.9-0.1c-0.5,0-1,0.1-1.5,0.4c-0.5,0.3-0.8,0.6-1.1,1.1l-16,37.1
	c-0.1,0.2-0.1,0.4-0.2,0.6c0,0.2-0.1,0.4,0,0.6c0,0.2,0.1,0.4,0.1,0.6c0.1,0.2,0.1,0.4,0.3,0.6c0.1,0.2,0.2,0.3,0.4,0.5
	c0.2,0.1,0.3,0.3,0.5,0.4C404.5,263.2,411.2,263.7,411.2,263.7z"/>
</svg>
