<?xml version="1.0" encoding="utf-8"?>
<!-- Generator: Adobe Illustrator 25.2.1, SVG Export Plug-In . SVG Version: 6.00 Build 0)  -->
<svg version="1.1" id="Camada_1" xmlns="http://www.w3.org/2000/svg" xmlns:xlink="http://www.w3.org/1999/xlink" x="0px" y="0px"
	 viewBox="0 0 720 313.6" style="enable-background:new 0 0 720 313.6;" xml:space="preserve">
<style type="text/css">
	.st0{fill-rule:evenodd;clip-rule:evenodd;fill:#EB6828;}
	.st1{fill:#FFFFFF;}
</style>
<g>
	<path class="st0" d="M715,131.7c-3.5-1-12.4,12.2-18.6,18.5c-15.7,15.9-57.6,15.5-44.3-13.9c4.9-10.8,12.1-21.4,13-29.1
		c-3.5-3.6-6.2-7.5-12.4-3.9c-3.6,2.1-45.7,49.9-49.1,53.2c-21.7,21.7-40.8,10.5,9.1-38.6c25.8-25.4,43.4-20.2,50.1-22.7
		c6.3-2.4,7.5-6.6,7.4-8.8c-0.5-9.1-31.4-16.5-64.7,9.8c-31.7,25-38.7,44.9-59.4,67.1l-25.5,27.1c-0.4-9.8-10.2-11.7-9.5-36.1
		c1.1-38.4,51.8-55.6,52.1-84.9c0.1-13.5-23.5-14.3-44.1,5.5c-13.5,13-28.5,30.4-34.4,56.7c-2.4,10.4-1.2,26.2-3.8,30.1
		c-17.8,19.7-52.4,30.4-55.1-1.9c8.5-3.2,25.1-13,34.1-23.7c51-60.9-10-86.8-46.6-38.2c-11.2,14.9-21,39.3-15.5,62.3
		c-12.3,1.1-18.5,4.1-33.5-10.5c-11.1-10.8-20.7-22.9-32.5-23c-16.2-0.2-28.4,28-37,28.3c0-25.4-2.4-44.3-10.9-46.2
		c-6.4-1.4-12.3,4.8-26.3,22.6c-9.1,11.6-19.6,25.1-25.1,23.6c1.8-11.7,4.2-18.8-1.2-30c-13.2-27.2-43.1,6.5-51.3,18.8
		c-1,1-2.5,0.5-2.7-0.7l0.8-3.7c13.8-42.2-5.1-112.5-54.1-113.1c-10.3-0.1-18.1,1.1-22.4,2.5c1.6-6.8,14.8-24.9,0.9-26.1
		C96.6,2.4,87.6,15,82.5,20.9c-17.4,19.7-36.2,44.6-49,66.3C20.6,108.9,1.8,155.9,2,167.1c0.2,8.1,9,6.8,11.6,2.7
		c1.9-3,5.4-5.4,8.1-8.5c-2,25.2-0.9,42.2,9,63.4C50,265.3,97,264.4,161.1,177.4c9.5-12.8,42.2-40.8,49.8-39.8
		c7.9,14.3-27.8,76.3-7.8,74c15.9-1.8,57.7-61,57.7-61c3.8-4.7,8.2-7,10.5-7.3c-0.6,20,1,42.6,11.3,46.2c9.4,1.6,16.9-13,24.2-20.3
		c7.1-7.2,14-18,22.8-18c6.3,0,21,19.5,28.8,23.7c16.2,8.8,27.4,3.2,41.2-2.4c5.3,7.5,24.9,42.5,67.5,16.8
		c10.5-6.3,11.5-7,19.5-15.5c0.5,4.8,2.5,11.4,5.8,18.5c2.8,6,8.7,12.5,12.6,16.4c-14.8,18.4-44.6,44.5-42.6,82.6
		c1.2,23.9,28.5,21.5,49.5,7.3c6.7-4.5,13.6-9.2,19.5-15.5c10.3-10.9,19.7-23.1,19.1-43c-0.6-19.5-8.8-25.1-17-35.8
		c7.7-12.3,17.2-19.7,22-23.9c3.6,42.9,59.2-13.2,68.1-15.6c4.4,16.4,32.2,28.3,57.1,14.3C700,168.3,720.7,141.3,715,131.7z
		 M78.2,229.5c-36.6,0.9-43.5-55.6-27.9-104.8c18.8-59.1,81.8-93.6,100.9-53.9C175.6,121.4,121,228.4,78.2,229.5z M444.7,100.7
		c5.9-4.7,13.1-7.6,17.4-5.9c12.7,8.5-30.2,50.4-40.4,53.6C422.1,130.1,431.9,111,444.7,100.7z M508.4,287.7
		c-30.2,19-18.2-24.8-10.5-40.7c6.7-13.9,13.6-20.4,21.4-27C551.6,245,524.3,277.7,508.4,287.7z"/>
	<g>
		<path class="st1" d="M192.3,250.5l12.4-26.6h4.7l13.2,26.6h-4.9l-3.8-8h-13.6l-3.5,8H192.3z M201.6,239.5h11.1l-3.4-7.4
			c-1-2.2-1.8-4.1-2.3-5.5c-0.4,1.7-1,3.4-1.8,5.1L201.6,239.5z"/>
		<path id="_x31__1_" class="st1" d="M249.2,241.1l4.3,0.9c-0.9,2.9-2.5,5.1-4.8,6.6s-5.2,2.3-8.5,2.3c-3.5,0-6.4-0.6-8.5-1.8
			c-2.2-1.2-3.8-2.8-5-5.1c-1.2-2.2-1.7-4.6-1.7-7.1c0-2.8,0.7-5.2,2-7.2c1.3-2.1,3.1-3.7,5.5-4.7c2.4-1.1,5-1.7,7.9-1.7
			c3.2,0,5.9,0.7,8.2,2c2.2,1.4,3.7,3.3,4.6,5.7l-4.2,0.9c-0.7-2-1.8-3.4-3.3-4.3c-1.4-0.9-3.3-1.3-5.4-1.3c-2.5,0-4.6,0.5-6.2,1.4
			c-1.7,1-2.8,2.3-3.5,4c-0.7,1.7-1.1,3.3-1.1,5.1c0,2.2,0.4,4.2,1.2,5.9c0.8,1.7,2,3,3.8,3.8c1.7,0.8,3.5,1.2,5.5,1.2
			c2.4,0,4.4-0.6,6.1-1.7C247.5,245.1,248.6,243.4,249.2,241.1z"/>
		<path id="_x32__1_" class="st1" d="M255.3,250.5l12.4-26.6h4.8l13.2,26.6h-4.8l-3.8-8h-13.7l-3.5,8H255.3z M264.6,239.5h11.1
			l-3.4-7.4c-1-2.2-1.7-4.1-2.3-5.5c-0.4,1.7-1,3.4-1.8,5.1L264.6,239.5z"/>
		<path id="_x33__1_" class="st1" d="M289,250.5v-26.6h11.2c2.5,0,4.4,0.1,5.8,0.4c1.8,0.4,3.4,0.9,4.7,1.9c1.7,1.2,3,2.7,3.8,4.6
			c0.9,1.9,1.3,4,1.3,6.4c0,2-0.3,3.8-0.9,5.4c-0.6,1.5-1.3,2.8-2.2,3.8c-0.9,1.1-2,1.9-3,2.5c-1.1,0.6-2.4,1-3.9,1.3
			s-3.3,0.4-5.2,0.4H289z M293.3,247.4h6.9c2.2,0,3.8-0.1,5.1-0.4c1.2-0.4,2.2-0.8,2.9-1.4c1-0.8,1.8-2,2.4-3.3
			c0.6-1.4,0.9-3.1,0.9-5.1c0-2.8-0.6-4.9-1.7-6.4c-1.2-1.5-2.5-2.5-4.1-3c-1.2-0.4-3-0.5-5.6-0.5h-6.8V247.4z"/>
		<polygon id="_x34__1_" class="st1" points="320.7,250.5 320.7,223.9 344.2,223.9 344.2,227 325,227 325,235.2 343,235.2 
			343,238.3 325,238.3 325,247.4 344.9,247.4 344.9,250.5 		"/>
		<path id="_x35__1_" class="st1" d="M351.5,250.5v-26.6h6.4l7.7,18.8c0.7,1.7,1.2,3,1.6,3.9c0.4-0.9,0.9-2.4,1.7-4.3l7.8-18.5h5.7
			v26.6h-4.1v-22.2l-9.5,22.2H365l-9.4-22.7v22.7H351.5z"/>
		<polygon id="_x36__1_" class="st1" points="390.6,250.5 390.6,223.9 394.9,223.9 394.9,250.5 		"/>
		<path id="_x37__1_" class="st1" d="M398.4,250.5l12.4-26.6h4.7l13.2,26.6h-4.9l-3.7-8h-13.7l-3.5,8H398.4z M407.7,239.5h11.1
			l-3.4-7.4c-1-2.2-1.7-4.1-2.3-5.5c-0.4,1.7-1,3.4-1.8,5.1L407.7,239.5z"/>
	</g>
</g>
</svg>
